<?xml version="1.0" encoding="UTF-8" standalone="no"?>
<!-- Created with Inkscape (http://www.inkscape.org/) -->

<svg
   width="151.77449mm"
   height="144.83304mm"
   viewBox="0 0 151.77449 144.83302"
   version="1.1"
   id="svg1"
   sodipodi:docname="logo.svg"
   inkscape:version="1.3 (1:1.3+202307231459+0e150ed6c4)"
   xml:space="preserve"
   xmlns:inkscape="http://www.inkscape.org/namespaces/inkscape"
   xmlns:sodipodi="http://sodipodi.sourceforge.net/DTD/sodipodi-0.dtd"
   xmlns="http://www.w3.org/2000/svg"
   xmlns:svg="http://www.w3.org/2000/svg"><sodipodi:namedview
     id="namedview1"
     pagecolor="#313131"
     bordercolor="#666666"
     borderopacity="1.0"
     inkscape:showpageshadow="2"
     inkscape:pageopacity="0.0"
     inkscape:pagecheckerboard="0"
     inkscape:deskcolor="#d1d1d1"
     inkscape:document-units="mm"
     inkscape:zoom="0.35355339"
     inkscape:cx="55.154329"
     inkscape:cy="-260.21529"
     inkscape:window-width="1862"
     inkscape:window-height="1024"
     inkscape:window-x="58"
     inkscape:window-y="28"
     inkscape:window-maximized="1"
     inkscape:current-layer="layer1" /><defs
     id="defs1" /><g
     inkscape:label="Layer 1"
     inkscape:groupmode="layer"
     id="layer1"
     transform="translate(-311.42688,-223.38795)"><path
       style="fill:#ffffff;fill-opacity:1;stroke:#ffffff;stroke-width:1.53;stroke-dasharray:none;stroke-opacity:1"
       d="m 355.24413,364.18903 c -3.5749,-6.67966 3.65653,-14.04598 10.29897,-10.49106 3.83125,2.0504 4.59425,8.53593 1.38208,11.74804 -3.16993,3.16999 -9.68719,2.4687 -11.68105,-1.25698 z m 20.98958,-1.42087 c 0.44729,-2.33921 2.9329,-3.24939 10.98439,-4.02212 20.32224,-1.95043 39.55898,-14.87389 49.07444,-32.96877 l 4.2346,-8.05254 -5.43137,-5.07367 c -2.98723,-2.79055 -5.96949,-7.21778 -6.62723,-9.83829 -1.55858,-6.20991 3.03143,-15.91982 8.75925,-18.52956 5.18931,-2.36442 5.20779,-2.57004 1.08478,-12.07395 -4.06149,-9.3622 -12.41662,-19.88135 -20.17675,-25.40276 -6.49657,-4.6224 -7.34008,-6.70754 -3.33507,-8.24438 6.49964,-2.49417 25.62459,19.36596 31.55764,36.07085 1.60788,4.527 3.87559,8.23093 5.03945,8.23093 1.1638,0 4.09114,2.13007 6.50512,4.73341 6.31909,6.81489 6.04602,16.33498 -0.661,23.04207 -2.77756,2.77749 -6.19183,5.05003 -7.58717,5.05003 -1.3954,0 -3.04116,2.00822 -3.65717,4.46269 -1.49433,5.95381 -8.76702,17.52816 -15.43983,24.57224 -11.66877,12.31803 -31.31851,21.06722 -47.31454,21.06722 -6.29466,0 -7.48908,-0.51519 -7.00954,-3.0234 z m 77.20409,-56.61203 c 5.77712,-5.4763 -0.005,-18.10925 -8.288,-18.10925 -4.40405,0 -10.50034,6.48605 -10.50034,11.17173 0,8.88044 12.04619,13.3285 18.78834,6.93752 z m -117.6882,42.38576 c -23.29098,-20.50155 -30.0584,-52.68642 -16.96262,-80.67151 3.25109,-6.94737 4.74529,-12.13845 3.83237,-13.31387 -5.20133,-6.69696 -2.70318,-19.43831 5.09835,-26.00285 7.63509,-6.42454 23.20322,-5.67434 27.76307,1.33775 0.80107,1.23183 3.96035,1.15067 10.06585,-0.25858 4.8941,-1.12964 11.56012,-2.05399 14.81336,-2.05399 4.76325,0 5.91503,0.67282 5.91503,3.45534 0,2.88125 -1.21995,3.48929 -7.34256,3.65972 -4.03838,0.11231 -9.56737,0.69555 -12.28661,1.29576 -4.38883,0.96875 -4.98252,1.89369 -5.28641,8.23583 -0.68438,14.28092 -12.58032,23.54179 -25.76589,20.05844 -6.32085,-1.66985 -6.77382,-1.50772 -9.83058,3.51868 -4.95326,8.14499 -7.38899,21.16144 -6.44048,34.41772 1.1907,16.64123 9.22104,32.30763 21.47291,41.89159 4.91794,3.84706 8.99955,7.96641 9.0702,9.15417 0.25401,4.27077 -6.44381,2.02918 -14.11599,-4.72413 z m 12.52521,-92.46101 c 13.23722,-6.84526 4.52668,-29.18342 -10.12494,-25.96537 -11.68895,2.56736 -15.48926,16.77267 -6.54534,24.46588 5.52089,4.74888 9.66564,5.12173 16.67028,1.49949 z m 18.0606,71.9101 c -13.52367,-6.14298 -21.02111,-19.84733 -19.21251,-35.1181 1.27395,-10.75683 6.52132,-19.3115 15.48338,-25.24233 5.8336,-3.86045 8.92184,-4.63474 18.48614,-4.63474 9.39492,0 12.64255,0.78526 17.86275,4.31915 23.21603,15.71643 21.48604,49.50514 -3.10659,60.67602 -3.84013,1.74429 -10.48062,3.17149 -14.75655,3.17149 -4.276,0 -10.91641,-1.4272 -14.75662,-3.17149 z m 30.69904,-8.0671 c 11.47268,-8.48846 15.2075,-26.21265 7.8129,-37.07754 -6.67679,-9.81022 -12.42231,-12.93985 -23.75532,-12.93985 -11.33301,0 -17.07859,3.12963 -23.75531,12.93985 -4.11139,6.04079 -5.17998,17.13305 -2.36272,24.52425 1.82401,4.78525 10.06872,13.3255 14.88826,15.4218 5.87878,2.55712 22.16251,0.8381 27.17219,-2.86851 z m -0.9694,-20.93518 c -0.63339,-0.63339 -1.15178,-2.83025 -1.15178,-4.88177 0,-4.60294 -6.54365,-10.98164 -13.05099,-12.72201 -2.6753,-0.71547 -5.14217,-2.13451 -5.48178,-3.15341 -1.20519,-3.61565 5.14511,-3.97583 12.52684,-0.7105 7.97098,3.52593 12.91661,10.50008 12.91661,18.21457 0,4.14514 -3.11005,5.90197 -5.7589,3.25312 z m 0.1443,-57.72667 c -7.68752,-4.47763 -0.69554,-17.98479 7.13929,-13.79172 6.23133,3.33494 6.29095,10.67208 0.11362,13.97808 -3.75166,2.00783 -3.47343,2.01495 -7.25291,-0.1861 z"
       id="path5"
       sodipodi:nodetypes="ssssssscssssssssssssssssssssssssssssssssssssssssscsssssscsssssssssssssssssss" /></g></svg>
